<svg xmlns:xlink="http://www.w3.org/1999/xlink" width="219" xmlns="http://www.w3.org/2000/svg" height="163.819" id="screenshot-ae6c29b3-46b3-80a2-8004-0bb93dfd853f" viewBox="0 0 219 163.819" style="-webkit-print-color-adjust: exact;" fill="none" version="1.1"><g id="shape-ae6c29b3-46b3-80a2-8004-0bb93dfd853f" width="862.70323" height="644.78592" xmlns:xlink="http://www.w3.org/1999/xlink" rx="0" ry="0" style="fill: rgb(0, 0, 0);"><g id="shape-ae6c29b3-46b3-80a2-8004-0bb93e00b5d8"><g class="fills" id="fills-ae6c29b3-46b3-80a2-8004-0bb93e00b5d8"><path rx="0" ry="0" d="M159.913,155.653L155.555,155.653L153.482,138.832L159.913,138.832L159.913,155.653ZZ" style="fill: rgb(158, 97, 106);"/></g></g><g id="shape-ae6c29b3-46b3-80a2-8004-0bb93e01eb90"><g class="fills" id="fills-ae6c29b3-46b3-80a2-8004-0bb93e01eb90"><path rx="0" ry="0" d="M162.213,163.209L159.088,163.209L158.530,160.256L157.102,163.209L148.814,163.209C147.998,163.209,147.277,162.678,147.035,161.899C146.792,161.120,147.084,160.274,147.755,159.810L154.374,155.235L154.374,152.250L161.335,152.666Z" style="fill: rgb(73, 71, 101); fill-opacity: 1;"/></g></g><g id="shape-ae6c29b3-46b3-80a2-8004-0bb93e02aec5"><g class="fills" id="fills-ae6c29b3-46b3-80a2-8004-0bb93e02aec5"><path rx="0" ry="0" d="M185.801,150.149L182.304,152.752L170.611,140.492L175.772,136.651L185.801,150.149ZZ" style="fill: rgb(158, 97, 106);"/></g></g><g id="shape-ae6c29b3-46b3-80a2-8004-0bb93e034ba5"><g class="fills" id="fills-ae6c29b3-46b3-80a2-8004-0bb93e034ba5"><path rx="0" ry="0" d="M192.152,154.839L189.644,156.705L187.436,154.669L188.050,157.892L181.399,162.841C180.745,163.328,179.850,163.333,179.191,162.853C178.532,162.372,178.261,161.519,178.523,160.746L181.107,153.122L179.327,150.727L185.161,146.903Z" style="fill: rgb(73, 71, 101); fill-opacity: 1;"/></g></g><g id="shape-ae6c29b3-46b3-80a2-8004-0bb93e0460b7"><g class="fills" id="fills-ae6c29b3-46b3-80a2-8004-0bb93e0460b7"><path rx="0" ry="0" d="M164.986,68.867C164.986,68.867,173.254,76.015,169.439,96.394L164.782,116.362L179.970,141.579L175.127,147.475L155.383,120.180L148.228,103.384L146.220,73.489Z" style="fill: rgb(73, 71, 101); fill-opacity: 1;"/></g></g><g id="shape-ae6c29b3-46b3-80a2-8004-0bb93e055646"><g class="fills" id="fills-ae6c29b3-46b3-80a2-8004-0bb93e055646"><path rx="0" ry="0" d="M152.172,108.171L151.674,115.878L153.196,148.723L160.357,147.474L161.726,124.090L152.172,108.171ZZ" style="fill: rgb(73, 71, 101); fill-opacity: 1;"/></g></g><g id="shape-ae6c29b3-46b3-80a2-8004-0bb93e060602"><g class="fills" id="fills-ae6c29b3-46b3-80a2-8004-0bb93e060602"><path rx="0" ry="0" d="M60.276,159.608L64.173,159.608L66.027,144.565L60.276,144.566L60.276,159.608ZZ" style="fill: rgb(255, 182, 182);"/></g></g><g id="shape-ae6c29b3-46b3-80a2-8004-0bb93e071a9b"><g class="fills" id="fills-ae6c29b3-46b3-80a2-8004-0bb93e071a9b"><path rx="0" ry="0" d="M59.282,158.335L60.379,158.335L64.661,156.592L66.956,158.334L66.957,158.334C69.658,158.334,71.847,160.526,71.847,163.229L71.847,163.388L59.282,163.388Z" style="fill: rgb(73, 71, 101); fill-opacity: 1;"/></g></g><g id="shape-ae6c29b3-46b3-80a2-8004-0bb93e086b1e"><g class="fills" id="fills-ae6c29b3-46b3-80a2-8004-0bb93e086b1e"><path rx="0" ry="0" d="M75.377,157.150L79.178,158.009L84.297,143.745L78.687,142.477L75.377,157.150ZZ" style="fill: rgb(255, 182, 182);"/></g></g><g id="shape-ae6c29b3-46b3-80a2-8004-0bb93e090b62"><g class="fills" id="fills-ae6c29b3-46b3-80a2-8004-0bb93e090b62"><path rx="0" ry="0" d="M74.688,155.689L75.758,155.931L80.318,155.175L82.174,157.381L82.174,157.381C84.808,157.976,86.462,160.596,85.867,163.233L85.832,163.388L73.576,160.619Z" style="fill: rgb(73, 71, 101); fill-opacity: 1;"/></g></g><g id="shape-ae6c29b3-46b3-80a2-8004-0bb93e09dea8"><g class="fills" id="fills-ae6c29b3-46b3-80a2-8004-0bb93e09dea8"><path rx="0" ry="0" d="M55.341,67.646C53.514,73.161,53.707,79.147,55.780,85.571L56.666,121.743C56.666,121.743,55.346,145.464,59.606,153.811L65.785,153.811L68.844,119.577L69.228,96.599L82.475,115.985L74.038,153.252L81.643,153.932L95.334,113.489L78.441,74.251Z" style="fill: rgb(73, 71, 101); fill-opacity: 1;"/></g></g><g id="shape-ae6c29b3-46b3-80a2-8004-0bb93e107302"><g class="fills" id="fills-ae6c29b3-46b3-80a2-8004-0bb93e107302"><path rx="0" ry="0" d="M145.317,66.210C145.152,66.907,145.349,67.641,145.840,68.162C145.964,68.293,145.745,68.468,145.621,68.338C145.081,67.760,144.863,66.951,145.038,66.180C145.049,66.104,145.117,66.050,145.193,66.055C145.270,66.064,145.325,66.133,145.317,66.210ZZ" style="fill: rgb(136, 136, 136); fill-opacity: 1;"/></g></g><g id="shape-ae6c29b3-46b3-80a2-8004-0bb93e1117a6"><g class="fills" id="fills-ae6c29b3-46b3-80a2-8004-0bb93e1117a6"><path rx="0" ry="0" d="M13.016,159.335C12.648,160.717,11.681,161.868,10.513,162.706C10.322,162.843,10.127,162.970,9.929,163.090C9.868,163.125,9.807,163.163,9.744,163.196C9.675,163.237,9.607,163.275,9.538,163.311L4.047,163.311C3.948,163.110,3.852,162.907,3.755,162.706C1.402,157.757,-0.250,152.417,0.031,146.978C0.143,144.868,0.586,142.789,1.344,140.817C2.852,136.886,5.603,133.485,9.388,131.772C9.482,131.729,9.581,131.686,9.678,131.645C9.647,131.754,9.617,131.861,9.586,131.970C9.180,133.434,8.893,134.929,8.728,136.439C8.713,136.556,8.700,136.673,8.690,136.792C8.330,140.435,8.650,144.113,9.635,147.638C9.637,147.646,9.640,147.656,9.642,147.663C9.858,148.443,10.108,149.212,10.394,149.968C10.617,150.565,10.858,151.154,11.122,151.733C12.224,154.165,13.701,156.756,13.016,159.335ZZ" style="fill: rgb(87, 81, 99); fill-opacity: 1;"/></g></g><g id="shape-ae6c29b3-46b3-80a2-8004-0bb93e11d672"><g class="fills" id="fills-ae6c29b3-46b3-80a2-8004-0bb93e11d672"><path rx="0" ry="0" d="M9.746,131.760C9.693,131.831,9.640,131.899,9.586,131.970C8.471,133.449,7.525,135.048,6.763,136.737C6.723,136.820,6.685,136.904,6.652,136.991C5.609,139.349,4.939,141.855,4.667,144.419C4.664,144.437,4.662,144.455,4.662,144.473C4.598,145.072,4.560,145.677,4.545,146.281C4.488,147.415,4.611,148.550,4.908,149.645C5.179,150.539,5.653,151.359,6.294,152.038C6.357,152.107,6.421,152.176,6.489,152.242C6.540,152.295,6.596,152.348,6.649,152.399C7.162,152.889,7.723,153.344,8.205,153.870C8.426,154.106,8.626,154.361,8.802,154.632C9.370,155.552,9.517,156.671,9.208,157.706C8.863,158.992,8.073,160.077,7.266,161.111C6.862,161.629,6.446,162.152,6.086,162.706C5.954,162.904,5.832,163.105,5.720,163.311L5.400,163.311C5.507,163.105,5.624,162.904,5.751,162.706C6.677,161.245,7.995,159.990,8.678,158.382C9.140,157.297,9.279,156.068,8.695,155.003C8.524,154.694,8.317,154.405,8.078,154.144C7.614,153.619,7.058,153.169,6.553,152.694C6.426,152.574,6.301,152.452,6.182,152.325C5.550,151.682,5.061,150.911,4.750,150.064C4.398,148.988,4.232,147.860,4.258,146.729C4.258,146.007,4.296,145.280,4.367,144.559C4.375,144.467,4.385,144.373,4.395,144.279C4.914,139.739,6.638,135.421,9.388,131.772C9.439,131.701,9.492,131.633,9.546,131.564C9.655,131.422,9.855,131.620,9.746,131.760ZZ" style="fill: rgb(136, 136, 136); fill-opacity: 1;"/></g></g><g id="shape-ae6c29b3-46b3-80a2-8004-0bb93e125785"><g class="fills" id="fills-ae6c29b3-46b3-80a2-8004-0bb93e125785"><path rx="0" ry="0" d="M4.497,144.583C2.681,144.278,1.354,142.701,1.361,140.858C1.362,140.782,1.423,140.721,1.499,140.719C1.574,140.718,1.637,140.776,1.642,140.852C1.632,142.568,2.873,144.037,4.566,144.311C4.744,144.340,4.675,144.612,4.497,144.583ZZ" style="fill: rgb(136, 136, 136); fill-opacity: 1;"/></g></g><g id="shape-ae6c29b3-46b3-80a2-8004-0bb93e12dc77"><g class="fills" id="fills-ae6c29b3-46b3-80a2-8004-0bb93e12dc77"><path rx="0" ry="0" d="M6.223,152.089C7.717,151.044,8.763,149.474,9.151,147.692C9.189,147.516,9.461,147.584,9.423,147.761C9.015,149.615,7.924,151.246,6.367,152.330C6.219,152.434,6.076,152.192,6.223,152.089ZZ" style="fill: rgb(136, 136, 136); fill-opacity: 1;"/></g></g><g id="shape-ae6c29b3-46b3-80a2-8004-0bb93e13448f"><g class="fills" id="fills-ae6c29b3-46b3-80a2-8004-0bb93e13448f"><path rx="0" ry="0" d="M6.679,136.707C7.346,136.967,8.099,136.874,8.683,136.460C8.830,136.355,8.973,136.597,8.827,136.701C8.180,137.156,7.350,137.260,6.611,136.979C6.537,136.958,6.493,136.883,6.509,136.809C6.529,136.734,6.604,136.688,6.679,136.707ZZ" style="fill: rgb(136, 136, 136); fill-opacity: 1;"/></g></g><g id="shape-ae6c29b3-46b3-80a2-8004-0bb93e1435d2"><g class="fills" id="fills-ae6c29b3-46b3-80a2-8004-0bb93e1435d2"><path rx="0" ry="0" d="M28.790,141.584C28.701,141.653,28.610,141.721,28.521,141.792C27.316,142.715,26.188,143.735,25.148,144.841C25.066,144.925,24.985,145.011,24.906,145.098L24.904,145.100C22.437,147.780,20.487,150.892,19.151,154.282L19.144,154.304C19.141,154.312,19.139,154.317,19.136,154.325C18.607,155.681,18.180,157.076,17.859,158.496C17.550,159.884,17.296,161.370,16.811,162.706C16.737,162.912,16.656,163.115,16.570,163.311L5.283,163.311C5.322,163.110,5.362,162.907,5.403,162.706C5.977,159.762,6.874,156.891,8.078,154.144C8.119,154.053,8.160,153.962,8.205,153.870C8.827,152.513,9.558,151.209,10.391,149.970C10.391,149.970,10.391,149.969,10.392,149.968C10.392,149.968,10.393,149.968,10.394,149.968C10.851,149.292,11.342,148.640,11.866,148.014C13.224,146.397,14.827,145.005,16.618,143.888C16.628,143.881,16.641,143.875,16.651,143.868C20.215,141.655,24.439,140.601,28.478,141.513L28.481,141.513C28.585,141.536,28.686,141.559,28.790,141.584ZZ" style="fill: rgb(87, 81, 99); fill-opacity: 1;"/></g></g><g id="shape-ae6c29b3-46b3-80a2-8004-0bb93e14fab1"><g class="fills" id="fills-ae6c29b3-46b3-80a2-8004-0bb93e14fab1"><path rx="0" ry="0" d="M28.778,141.719C28.691,141.741,28.605,141.767,28.521,141.792C26.742,142.301,25.025,143.006,23.401,143.893C23.320,143.936,23.239,143.982,23.157,144.028C20.913,145.281,18.876,146.875,17.118,148.751C17.117,148.752,17.116,148.754,17.116,148.756C17.095,148.776,17.072,148.799,17.055,148.819C16.649,149.256,16.258,149.711,15.887,150.179C15.162,151.050,14.578,152.030,14.156,153.082C13.833,153.960,13.719,154.900,13.823,155.829C13.831,155.923,13.843,156.014,13.856,156.108C13.866,156.182,13.876,156.256,13.889,156.332C14.057,157.351,14.346,158.372,14.265,159.411C14.165,160.488,13.610,161.471,12.739,162.112C12.447,162.338,12.134,162.537,11.805,162.706C11.335,162.949,10.845,163.151,10.340,163.311L9.343,163.311C9.477,163.273,9.609,163.235,9.744,163.196C10.221,163.062,10.690,162.898,11.148,162.706C11.409,162.597,11.663,162.471,11.909,162.330C12.930,161.743,13.780,160.844,13.958,159.642C14.113,158.590,13.813,157.539,13.635,156.510C13.605,156.332,13.577,156.157,13.562,155.981C13.440,155.090,13.514,154.184,13.777,153.324C14.143,152.251,14.689,151.250,15.392,150.362C15.827,149.783,16.291,149.228,16.783,148.697C16.844,148.629,16.907,148.560,16.973,148.492C18.768,146.602,20.841,144.997,23.119,143.733L23.122,143.733C24.816,142.789,26.613,142.044,28.478,141.513L28.481,141.513C28.564,141.487,28.651,141.462,28.734,141.439C28.910,141.393,28.950,141.670,28.778,141.719ZZ" style="fill: rgb(136, 136, 136); fill-opacity: 1;"/></g></g><g id="shape-ae6c29b3-46b3-80a2-8004-0bb93e15a883"><g class="fills" id="fills-ae6c29b3-46b3-80a2-8004-0bb93e15a883"><path rx="0" ry="0" d="M16.873,148.794C15.607,147.456,15.495,145.397,16.610,143.930C16.720,143.787,16.947,143.950,16.838,144.094C15.797,145.459,15.904,147.379,17.091,148.618C17.216,148.748,16.997,148.924,16.873,148.794ZZ" style="fill: rgb(136, 136, 136); fill-opacity: 1;"/></g></g><g id="shape-ae6c29b3-46b3-80a2-8004-0bb93e161f05"><g class="fills" id="fills-ae6c29b3-46b3-80a2-8004-0bb93e161f05"><path rx="0" ry="0" d="M13.735,155.827C15.557,155.893,17.336,155.269,18.718,154.080C18.855,153.963,19.031,154.181,18.894,154.299C17.453,155.534,15.600,156.179,13.705,156.106C13.524,156.099,13.556,155.820,13.735,155.827ZZ" style="fill: rgb(136, 136, 136); fill-opacity: 1;"/></g></g><g id="shape-ae6c29b3-46b3-80a2-8004-0bb93e16ac71"><g class="fills" id="fills-ae6c29b3-46b3-80a2-8004-0bb93e16ac71"><path rx="0" ry="0" d="M23.353,143.820C23.729,144.430,24.386,144.809,25.102,144.830C25.282,144.835,25.251,145.114,25.072,145.109C24.282,145.082,23.556,144.665,23.135,143.996C23.089,143.935,23.098,143.848,23.156,143.799C23.217,143.750,23.305,143.760,23.353,143.820ZZ" style="fill: rgb(136, 136, 136); fill-opacity: 1;"/></g></g><g id="shape-ae6c29b3-46b3-80a2-8004-0bb93e1775e0"><g class="fills" id="fills-ae6c29b3-46b3-80a2-8004-0bb93e1775e0"><path rx="0" ry="0" d="M115.854,43.992C115.327,44.686,114.519,45.111,113.649,45.152C112.778,45.193,111.934,44.846,111.344,44.205L101.748,48.381L102.683,43.020L111.652,39.876C112.820,38.934,114.508,39.016,115.580,40.066C116.652,41.116,116.770,42.803,115.854,43.992ZZ" style="fill: rgb(255, 184, 184);"/></g></g><g id="shape-ae6c29b3-46b3-80a2-8004-0bb93e17e0a4"><g class="fills" id="fills-ae6c29b3-46b3-80a2-8004-0bb93e17e0a4"><path rx="0" ry="0" d="M109.451,45.666L87.163,55.601L87.115,55.584L61.713,46.525C57.785,44.470,56.139,39.707,57.960,35.663L57.960,35.663C58.944,33.486,60.811,31.834,63.090,31.123C65.369,30.413,67.843,30.711,69.888,31.944L88.792,43.341L107.123,40.963Z" style="fill: rgb(87, 81, 99); fill-opacity: 1;"/></g></g><g id="shape-ae6c29b3-46b3-80a2-8004-0bb93e18a854"><g class="fills" id="fills-ae6c29b3-46b3-80a2-8004-0bb93e18a854"><path rx="0" ry="0" d="M219.000,163.517C219.000,163.597,218.968,163.674,218.912,163.731C218.855,163.787,218.778,163.819,218.698,163.819L0.311,163.819C0.144,163.819,0.008,163.684,0.008,163.517C0.008,163.350,0.144,163.214,0.311,163.214L218.698,163.214C218.778,163.214,218.855,163.246,218.912,163.303C218.968,163.359,219.000,163.436,219.000,163.517ZZ" style="fill: rgb(136, 136, 136); fill-opacity: 1;"/></g></g><g id="shape-ae6c29b3-46b3-80a2-8004-0bb93e197e81"><g class="fills" id="fills-ae6c29b3-46b3-80a2-8004-0bb93e197e81"><path rx="0" ry="0" d="M79.543,75.410L57.076,71.814C55.883,71.431,54.917,70.547,54.431,69.392C53.946,68.237,53.988,66.927,54.549,65.806L55.567,63.766L55.172,42.338C55.075,36.665,58.011,31.371,62.873,28.453L65.064,27.141L66.171,24.327L76.381,24.577L76.411,28.267L80.067,34.103L80.067,34.127L79.838,65.887L78.830,69.165L80.354,72.977Z" style="fill: rgb(87, 81, 99); fill-opacity: 1;"/></g></g><g id="shape-ae6c29b3-46b3-80a2-8004-0bb93e19dbbe"><g class="fills" id="fills-ae6c29b3-46b3-80a2-8004-0bb93e19dbbe"><ellipse rx="9.276845268368334" ry="9.284251646284076" cx="72.21086001717117" cy="11.543894185786087" transform="matrix(1.000000, 0.000000, 0.000000, 1.000000, 0.000000, 0.000000)" style="fill: rgb(255, 184, 184);"/></g></g><g id="shape-ae6c29b3-46b3-80a2-8004-0bb93e1a74df"><g class="fills" id="fills-ae6c29b3-46b3-80a2-8004-0bb93e1a74df"><path rx="0" ry="0" d="M62.551,13.568C62.274,12.401,62.401,10.760,62.558,9.585C62.967,6.506,64.676,3.578,67.272,1.844C67.765,1.470,68.350,1.237,68.964,1.171C69.578,1.145,70.244,1.474,70.433,2.060C70.745,1.279,71.367,0.662,72.150,0.355C72.928,0.057,73.765,-0.056,74.595,0.026C77.870,0.296,80.733,2.344,82.049,5.358C82.297,5.947,82.989,3.771,83.303,4.328C83.591,4.907,84.094,5.349,84.705,5.561C85.320,5.733,85.570,8.269,85.812,7.678C86.194,8.566,86.094,9.589,85.547,10.386C85.001,11.184,84.084,11.646,83.119,11.609C82.492,11.586,81.894,11.356,81.275,11.256C79.063,10.902,76.716,12.507,76.243,14.699C76.074,14.065,75.803,13.463,75.442,12.915C75.070,12.363,74.454,12.024,73.788,12.006C73.159,12.030,72.606,12.441,72.197,12.921C71.789,13.401,71.482,13.961,71.071,14.439C69.864,15.839,68.231,19.106,66.510,18.867C65.153,18.679,62.929,15.161,62.551,13.568ZZ" style="fill: rgb(73, 71, 101); fill-opacity: 1;"/></g></g><g id="shape-ae6c29b3-46b3-80a2-8004-0bb93e1b11f6"><g class="fills" id="fills-ae6c29b3-46b3-80a2-8004-0bb93e1b11f6"><path rx="0" ry="0" d="M128.288,54.513C128.422,53.639,127.907,52.795,127.068,52.517L102.085,44.190C101.846,44.110,101.592,44.081,101.341,44.104L95.079,44.697L91.486,45.038L84.856,45.665C84.033,45.744,83.366,46.370,83.235,47.187L79.869,68.232C79.738,69.078,80.211,69.901,81.007,70.213L106.251,79.965C106.369,80.011,106.492,80.044,106.618,80.063C106.801,80.093,106.987,80.094,107.170,80.068L123.482,77.648C124.272,77.534,124.893,76.914,125.010,76.124Z" style="fill: rgb(136, 136, 136); fill-opacity: 1;"/></g></g><g id="shape-ae6c29b3-46b3-80a2-8004-0bb93e1c335d"><g class="fills" id="fills-ae6c29b3-46b3-80a2-8004-0bb93e1c335d"><path rx="0" ry="0" d="M81.580,68.730L106.823,78.481C106.860,78.496,106.900,78.501,106.939,78.495L123.248,76.076C123.347,76.062,123.426,75.984,123.440,75.885L126.719,54.273C126.735,54.164,126.671,54.060,126.567,54.024L126.399,53.967L101.583,45.698C101.572,45.694,101.560,45.692,101.548,45.690C101.529,45.686,101.509,45.685,101.490,45.687L86.217,47.133L85.005,47.247C84.903,47.258,84.820,47.336,84.803,47.437L81.438,68.482C81.421,68.588,81.480,68.691,81.580,68.730ZZ" style="fill: rgb(99, 255, 201); fill-opacity: 1;"/></g></g><g id="shape-ae6c29b3-46b3-80a2-8004-0bb93e1c822c"><g class="fills" id="fills-ae6c29b3-46b3-80a2-8004-0bb93e1c822c"><path rx="0" ry="0" d="M86.217,47.133L101.490,45.687C101.509,45.685,101.529,45.686,101.548,45.690C101.560,45.692,101.572,45.694,101.583,45.698L126.399,53.967L119.853,54.660L117.404,54.919L110.433,55.656C110.412,55.657,110.392,55.657,110.371,55.655C110.359,55.651,110.347,55.648,110.332,55.644Z" style="fill: rgb(32, 32, 42); fill-opacity: 1;"/></g></g><g id="shape-ae6c29b3-46b3-80a2-8004-0bb93e1d891c"><g class="fills" id="fills-ae6c29b3-46b3-80a2-8004-0bb93e1d891c"><path rx="0" ry="0" d="M81.007,70.214L106.250,79.966C106.369,80.011,106.492,80.044,106.618,80.062C106.801,80.092,106.987,80.095,107.171,80.069L123.480,77.650C124.271,77.535,124.892,76.915,125.011,76.124L128.288,54.512C128.336,54.194,128.300,53.868,128.182,53.568C128.165,53.528,128.148,53.489,128.129,53.451C127.999,53.177,127.801,52.941,127.554,52.766C127.406,52.659,127.242,52.575,127.068,52.517L127.039,52.507L102.087,44.190C101.985,44.157,101.881,44.132,101.775,44.114C101.631,44.094,101.485,44.091,101.340,44.106L95.079,44.696L91.487,45.039L84.855,45.666C84.584,45.691,84.322,45.778,84.089,45.919C84.071,45.928,84.054,45.938,84.038,45.950C84.026,45.958,84.015,45.966,84.005,45.975C83.593,46.256,83.316,46.693,83.236,47.185L79.868,68.232C79.736,69.078,80.210,69.902,81.007,70.214ZZM83.683,47.259C83.724,47.006,83.836,46.771,84.005,46.580C84.057,46.518,84.114,46.462,84.177,46.413C84.348,46.274,84.551,46.179,84.767,46.137C84.809,46.128,84.853,46.122,84.896,46.119L96.062,45.063L101.384,44.556C101.420,44.552,101.453,44.553,101.486,44.551C101.567,44.549,101.647,44.555,101.727,44.569C101.800,44.578,101.872,44.595,101.941,44.620L126.922,52.948C126.942,52.955,126.959,52.961,126.979,52.968C127.206,53.053,127.406,53.198,127.556,53.388C127.796,53.683,127.900,54.066,127.841,54.442L124.561,76.056C124.472,76.648,124.008,77.112,123.416,77.200L107.104,79.618C106.871,79.652,106.633,79.625,106.413,79.540L81.170,69.791C80.574,69.556,80.220,68.939,80.317,68.306Z" style="fill: rgb(143, 139, 196); fill-opacity: 1;"/></g></g><g id="shape-ae6c29b3-46b3-80a2-8004-0bb93e1e801e"><g class="fills" id="fills-ae6c29b3-46b3-80a2-8004-0bb93e1e801e"><path rx="0" ry="0" d="M83.950,46.090C83.964,46.051,83.987,46.018,84.018,45.992C84.029,45.983,84.040,45.976,84.051,45.969C84.062,45.965,84.072,45.959,84.083,45.954C84.134,45.934,84.190,45.933,84.241,45.952L84.767,46.137L110.435,55.199L116.443,54.564L119.805,54.209L126.920,53.455L127.556,53.388L127.680,53.375C127.790,53.365,127.891,53.435,127.922,53.541C127.925,53.553,127.927,53.565,127.928,53.577C127.939,53.678,127.882,53.773,127.789,53.811C127.769,53.820,127.747,53.825,127.726,53.828L126.860,53.919L119.853,54.660L117.404,54.919L110.433,55.656C110.412,55.657,110.392,55.657,110.371,55.655C110.359,55.651,110.347,55.648,110.332,55.644L84.177,46.413L84.088,46.381C84.068,46.374,84.049,46.364,84.032,46.350C83.951,46.291,83.918,46.185,83.950,46.090ZZ" style="fill: rgb(143, 139, 196); fill-opacity: 1;"/></g></g><g id="shape-ae6c29b3-46b3-80a2-8004-0bb93e1f44e7"><g class="fills" id="fills-ae6c29b3-46b3-80a2-8004-0bb93e1f44e7"><path rx="0" ry="0" d="M106.687,80.128C106.564,80.109,106.480,79.993,106.499,79.870L110.184,55.396C110.202,55.272,110.318,55.187,110.442,55.205L110.444,55.206C110.567,55.225,110.651,55.340,110.632,55.464L106.947,79.938C106.929,80.062,106.813,80.147,106.687,80.128ZZ" style="fill: rgb(143, 139, 196); fill-opacity: 1;"/></g></g><g id="shape-ae6c29b3-46b3-80a2-8004-0bb93e202da7"><g class="fills" id="fills-ae6c29b3-46b3-80a2-8004-0bb93e202da7"><path rx="0" ry="0" d="M116.028,78.576L113.577,78.834L116.444,54.563C116.444,54.563,119.717,53.970,119.805,54.208C119.859,54.350,116.051,78.420,116.028,78.576ZZ" style="fill: rgb(143, 139, 196); fill-opacity: 1;"/></g></g><g id="shape-ae6c29b3-46b3-80a2-8004-0bb93e20dcbc"><g class="fills" id="fills-ae6c29b3-46b3-80a2-8004-0bb93e20dcbc"><path rx="0" ry="0" d="M84.089,46.381L84.023,57.449L103.602,64.915L110.633,55.464L84.089,46.381ZZ" style="fill: rgb(143, 139, 196); fill-opacity: 1;"/></g></g><g id="shape-ae6c29b3-46b3-80a2-8004-0bb93e2194d4"><g class="fills" id="fills-ae6c29b3-46b3-80a2-8004-0bb93e2194d4"><path rx="0" ry="0" d="M127.557,53.389C127.393,53.183,127.173,53.030,126.923,52.948L101.942,44.620C101.872,44.597,101.800,44.579,101.727,44.568C101.647,44.554,101.567,44.548,101.486,44.550L101.526,44.296L101.776,44.115L107.709,39.817L127.519,45.893L127.554,52.766Z" style="fill: rgb(143, 139, 196); fill-opacity: 1;"/></g></g><g id="shape-ae6c29b3-46b3-80a2-8004-0bb93e22dfe4"><g class="fills" id="fills-ae6c29b3-46b3-80a2-8004-0bb93e22dfe4"><path rx="0" ry="0" d="M85.087,64.149C85.115,64.152,85.143,64.158,85.087,64.149ZL92.834,66.686C93.034,66.752,93.143,66.967,93.077,67.167C93.012,67.367,92.797,67.476,92.597,67.410L84.932,64.891C84.748,64.830,84.638,64.641,84.678,64.451C84.718,64.261,84.894,64.131,85.087,64.149ZZ" style="fill: rgb(136, 136, 136); fill-opacity: 1;"/></g></g><g id="shape-ae6c29b3-46b3-80a2-8004-0bb93e234d47"><g class="fills" id="fills-ae6c29b3-46b3-80a2-8004-0bb93e234d47"><ellipse rx="3.0462387042848604" ry="3.048670737418263" cx="116.01174139556952" cy="107.53280652653342" transform="matrix(1.000000, 0.000000, 0.000000, 1.000000, 0.000000, 0.000000)" style="fill: rgb(87, 81, 99); fill-opacity: 1;"/></g></g><g id="shape-ae6c29b3-46b3-80a2-8004-0bb93e243c80"><g class="fills" id="fills-ae6c29b3-46b3-80a2-8004-0bb93e243c80"><ellipse rx="3.0462387042848604" ry="3.048670737418206" cx="38.33265443630398" cy="118.71126589706716" transform="matrix(1.000000, 0.000000, 0.000000, 1.000000, 0.000000, 0.000000)" style="fill: rgb(87, 81, 99); fill-opacity: 1;"/></g></g><g id="shape-ae6c29b3-46b3-80a2-8004-0bb93e24a790"><g class="fills" id="fills-ae6c29b3-46b3-80a2-8004-0bb93e24a790"><ellipse rx="3.0462387042848604" ry="3.048670737418263" cx="101.7959607755729" cy="17.851075667479165" transform="matrix(1.000000, 0.000000, 0.000000, 1.000000, 0.000000, 0.000000)" style="fill: rgb(87, 81, 99); fill-opacity: 1;"/></g></g><g id="shape-ae6c29b3-46b3-80a2-8004-0bb93e2503ce"><g class="fills" id="fills-ae6c29b3-46b3-80a2-8004-0bb93e2503ce"><path rx="0" ry="0" d="M106.794,68.633C105.995,68.981,105.083,68.956,104.303,68.566C103.524,68.176,102.957,67.460,102.756,66.612L92.345,65.559L95.780,61.340L105.139,62.986C106.619,62.737,108.051,63.634,108.473,65.074C108.895,66.515,108.174,68.044,106.794,68.633ZZ" style="fill: rgb(255, 184, 184);"/></g></g><g id="shape-ae6c29b3-46b3-80a2-8004-0bb93e25c309"><g class="fills" id="fills-ae6c29b3-46b3-80a2-8004-0bb93e25c309"><path rx="0" ry="0" d="M100.390,66.960L76.095,64.719L76.061,64.681L58.329,44.347C55.907,40.633,56.799,35.672,60.364,33.036L60.364,33.036C62.285,31.618,64.721,31.091,67.056,31.586C69.391,32.082,71.404,33.553,72.585,35.629L83.506,54.822L100.658,61.719Z" style="fill: rgb(87, 81, 99); fill-opacity: 1;"/></g></g><g id="shape-ae6c29b3-46b3-80a2-8004-0bb93e266b1e"><g class="fills" id="fills-ae6c29b3-46b3-80a2-8004-0bb93e266b1e"><path rx="0" ry="0" d="M161.372,27.856C160.769,23.427,160.012,18.671,156.890,15.474C154.889,13.424,152.138,12.281,149.274,12.311C146.410,12.341,143.683,13.540,141.724,15.631C139.452,18.057,138.449,21.463,138.357,24.787C138.265,28.111,139.005,31.398,139.825,34.620C144.168,34.707,148.478,33.858,152.463,32.131C153.460,31.698,154.441,31.208,155.494,30.940C156.547,30.672,157.297,31.347,158.277,31.817L158.814,30.787C159.254,31.607,160.617,31.364,161.112,30.576C161.606,29.787,161.498,28.778,161.372,27.856ZZ" style="fill: rgb(73, 71, 101); fill-opacity: 1;"/></g></g><g id="shape-ae6c29b3-46b3-80a2-8004-0bb93e26edb0"><g class="fills" id="fills-ae6c29b3-46b3-80a2-8004-0bb93e26edb0"><path rx="0" ry="0" d="M144.159,52.578L126.421,52.958C125.662,51.644,123.997,51.172,122.662,51.891C121.327,52.610,120.804,54.260,121.481,55.618C122.158,56.976,123.790,57.550,125.167,56.914C127.519,57.048,145.925,59.662,147.023,57.977C148.137,56.267,154.086,50.232,154.086,50.232L149.514,43.717L144.159,52.578Z" style="fill: rgb(158, 97, 106);"/></g></g><g id="shape-ae6c29b3-46b3-80a2-8004-0bb93e276dc5"><g class="fills" id="fills-ae6c29b3-46b3-80a2-8004-0bb93e276dc5"><ellipse rx="8.334031850859901" ry="8.34068551249419" cx="148.48153374270396" cy="23.897433205350296" transform="matrix(1.000000, 0.000000, 0.000000, 1.000000, 0.000000, 0.000000)" style="fill: rgb(158, 97, 106);"/></g></g><g id="shape-ae6c29b3-46b3-80a2-8004-0bb93e27f6f7"><g class="fills" id="fills-ae6c29b3-46b3-80a2-8004-0bb93e27f6f7"><path rx="0" ry="0" d="M109.338,43.597" style="fill: rgb(99, 255, 201); fill-opacity: 1;"/></g></g><g id="shape-ae6c29b3-46b3-80a2-8004-0bb93e289dd5"><g class="fills" id="fills-ae6c29b3-46b3-80a2-8004-0bb93e289dd5"><path rx="0" ry="0" d="M161.830,39.946C160.848,37.990,160.370,35.573,158.277,34.939C156.863,34.511,151.144,35.152,149.856,35.875C147.712,37.078,149.655,39.331,148.390,41.440C147.015,43.732,143.279,48.332,141.905,50.624C140.960,52.200,144.143,56.826,143.632,58.591C143.121,60.356,143.096,62.338,143.967,63.956C144.746,65.404,143.619,66.686,144.402,68.132C145.217,69.636,146.217,75.259,145.459,76.792L144.951,78.316C149.989,78.613,154.225,72.589,159.232,71.954C160.476,71.797,161.767,71.591,162.792,70.868C164.301,69.804,164.898,67.873,165.271,66.064C167.066,57.217,165.855,48.024,161.830,39.946ZZ" style="fill: rgb(143, 139, 196); fill-opacity: 1;"/></g></g><g id="shape-ae6c29b3-46b3-80a2-8004-0bb93e294822"><g class="fills" id="fills-ae6c29b3-46b3-80a2-8004-0bb93e294822"><path rx="0" ry="0" d="M169.383,60.601C168.682,58.684,167.411,50.302,167.411,50.302L159.460,50.069L163.347,59.665L152.739,74.528C152.739,74.528,152.758,74.561,152.794,74.619C151.652,74.436,150.515,74.972,149.930,75.970C149.345,76.968,149.431,78.223,150.147,79.131C150.863,80.039,152.063,80.415,153.169,80.077C154.275,79.739,155.060,78.757,155.147,77.603C155.228,77.649,155.330,77.632,155.390,77.561C156.571,76.079,170.085,62.518,169.383,60.601ZZ" style="fill: rgb(158, 97, 106);"/></g></g><g id="shape-ae6c29b3-46b3-80a2-8004-0bb93e2a2b90"><g class="fills" id="fills-ae6c29b3-46b3-80a2-8004-0bb93e2a2b90"><path rx="0" ry="0" d="M170.192,55.308C169.462,52.225,168.727,49.125,167.496,46.206C166.266,43.287,164.504,40.530,162.027,38.557C161.234,37.927,160.349,37.370,159.356,37.174C158.363,36.978,157.244,37.198,156.547,37.932C155.431,39.107,155.766,40.992,156.176,42.560C157.383,47.184,158.589,51.808,159.796,56.432C163.282,56.062,166.767,55.693,170.192,55.308ZZ" style="fill: rgb(143, 139, 196); fill-opacity: 1;"/></g></g><g id="shape-ae6c29b3-46b3-80a2-8004-0bb93e2aaec0"><g class="fills" id="fills-ae6c29b3-46b3-80a2-8004-0bb93e2aaec0"><path rx="0" ry="0" d="M158.693,25.054C158.387,23.037,158.066,21.002,157.345,19.102C156.624,17.202,155.462,15.423,153.794,14.347C151.155,12.643,147.737,12.971,144.777,13.951C142.489,14.709,140.254,15.862,138.640,17.714C137.026,19.566,136.120,22.209,136.720,24.631C139.877,23.884,143.034,23.138,146.191,22.391L145.845,22.636C147.946,23.684,149.447,25.642,149.915,27.944C150.372,30.272,149.760,32.683,148.248,34.510C150.401,33.746,152.554,32.982,154.708,32.217C156.036,31.745,157.459,31.202,158.247,29.992C159.161,28.589,158.948,26.729,158.693,25.054ZZ" style="fill: rgb(73, 71, 101); fill-opacity: 1;"/></g></g></g></svg>