<svg xmlns:xlink="http://www.w3.org/1999/xlink" width="219" xmlns="http://www.w3.org/2000/svg" height="144" id="screenshot-e88bca94-cc5e-8054-8004-07a5cf9ddf2a" viewBox="0 0 219 144" style="-webkit-print-color-adjust: exact;" fill="none" version="1.1"><g id="shape-e88bca94-cc5e-8054-8004-07a5cf9ddf2a" width="1119.60911" height="699" xmlns:xlink="http://www.w3.org/1999/xlink" rx="0" ry="0" style="fill: rgb(0, 0, 0);"><g id="shape-e88bca94-cc5e-8054-8004-07a5cf9fdba6"><g class="fills" id="fills-e88bca94-cc5e-8054-8004-07a5cf9fdba6"><ellipse rx="41.663648128050454" ry="41.44206008583683" cx="52.23550703334263" cy="41.44206008583683" transform="matrix(1.000000, 0.000000, 0.000000, 1.000000, 0.000000, 0.000000)" style="fill: rgb(138, 74, 94); fill-opacity: 1;"/></g></g><g id="shape-e88bca94-cc5e-8054-8004-07a5cfa5bc64"><g class="fills" id="fills-e88bca94-cc5e-8054-8004-07a5cfa5bc64"><ellipse rx="36.57794460068317" ry="4.949685951359015" cx="38.84873274209076" cy="90.59227467811138" transform="matrix(1.000000, 0.000000, 0.000000, 1.000000, 0.000000, 0.000000)" style="fill: rgb(60, 58, 92); fill-opacity: 1;"/></g></g><g id="shape-e88bca94-cc5e-8054-8004-07a5cfa601d5"><g class="fills" id="fills-e88bca94-cc5e-8054-8004-07a5cfa601d5"><ellipse rx="30.709825146027924" ry="4.155619113018702" cx="38.848732742090306" cy="90.59227467811138" transform="matrix(1.000000, 0.000000, 0.000000, 1.000000, 0.000000, 0.000000)" style="opacity: 0.1;"/></g></g><g id="shape-e88bca94-cc5e-8054-8004-07a5cfa68403"><g class="fills" id="fills-e88bca94-cc5e-8054-8004-07a5cfa68403"><ellipse rx="55.35592685557913" ry="7.490701001430807" cx="163.64407314442087" cy="136.5092989985692" transform="matrix(1.000000, 0.000000, 0.000000, 1.000000, 0.000000, 0.000000)" style="fill: rgb(60, 58, 92); fill-opacity: 1;"/></g></g><g id="shape-e88bca94-cc5e-8054-8004-07a5cfa77387"><g class="fills" id="fills-e88bca94-cc5e-8054-8004-07a5cfa77387"><ellipse rx="33.25267690971191" ry="4.499714678111559" cx="60.75637870613605" cy="133.59084406294687" transform="matrix(1.000000, 0.000000, 0.000000, 1.000000, 0.000000, 0.000000)" style="fill: rgb(60, 58, 92); fill-opacity: 1;"/></g></g><g id="shape-e88bca94-cc5e-8054-8004-07a5cfa7c78f"><g class="fills" id="fills-e88bca94-cc5e-8054-8004-07a5cfa7c78f"><path fill="none" stroke-miterlimit="10" rx="0" ry="0" d="M90.488,129.797C108.093,134.272,141.932,123.960,145.649,112.286" style="fill: none;"/></g><g id="strokes-e88bca94-cc5e-8054-8004-07a5cfa7c78f" class="strokes"><g class="stroke-shape"><path stroke-miterlimit="10" rx="0" ry="0" d="M90.488,129.797C108.093,134.272,141.932,123.960,145.649,112.286" style="fill: none; stroke-width: 2; stroke: rgb(255, 82, 82); stroke-opacity: 1;"/></g></g></g><g id="shape-e88bca94-cc5e-8054-8004-07a5cfa870d6"><g class="fills" id="fills-e88bca94-cc5e-8054-8004-07a5cfa870d6"><path fill="none" stroke-miterlimit="10" rx="0" ry="0" d="M60.561,58.392C60.561,58.392,85.989,51.388,87.554,73.957C89.119,96.526,66.624,102.947,84.229,107.422" style="fill: none;"/></g><g id="strokes-e88bca94-cc5e-8054-8004-07a5cfa870d6" class="strokes"><g class="stroke-shape"><path stroke-miterlimit="10" rx="0" ry="0" d="M60.561,58.392C60.561,58.392,85.989,51.388,87.554,73.957C89.119,96.526,66.624,102.947,84.229,107.422" style="fill: none; stroke-width: 2; stroke: rgb(255, 82, 82); stroke-opacity: 1;"/></g></g></g><g id="shape-e88bca94-cc5e-8054-8004-07a5cfa93972"><g class="fills" id="fills-e88bca94-cc5e-8054-8004-07a5cfa93972"><path fill="none" stroke-miterlimit="10" rx="0" ry="0" d="M35.993,112.536C35.993,112.536,43.636,110.431,44.106,117.214C44.577,123.997,37.816,125.927,43.107,127.272" style="fill: none;"/></g><g id="strokes-e88bca94-cc5e-8054-8004-07a5cfa93972" class="strokes"><g class="stroke-shape"><path stroke-miterlimit="10" rx="0" ry="0" d="M35.993,112.536C35.993,112.536,43.636,110.431,44.106,117.214C44.577,123.997,37.816,125.927,43.107,127.272" style="fill: none; stroke-width: 2; stroke: rgb(255, 83, 83); stroke-opacity: 1;"/></g></g></g><g id="shape-e88bca94-cc5e-8054-8004-07a5cfa98ff8"><g class="fills" id="fills-e88bca94-cc5e-8054-8004-07a5cfa98ff8"><path rx="0" ry="0" d="M152.318,117.586L150.777,127.372C150.777,127.372,143.191,131.380,148.525,131.498C153.859,131.616,178.987,131.498,178.987,131.498C178.987,131.498,183.847,131.498,176.142,127.254L174.601,116.997Z" style="fill: rgb(91, 88, 127); fill-opacity: 1;"/></g></g><g id="shape-e88bca94-cc5e-8054-8004-07a5cfaa4f14"><g class="fills" id="fills-e88bca94-cc5e-8054-8004-07a5cfaa4f14"><path rx="0" ry="0" d="M147.452,131.392C148.663,130.320,150.777,129.203,150.777,129.203L152.318,119.417L174.601,119.438L176.142,129.085C177.939,130.075,179.052,130.833,179.703,131.415C180.692,131.191,181.774,130.356,176.142,127.254L174.601,116.997L152.318,117.586L150.777,127.372C150.777,127.372,144.402,130.740,147.452,131.392ZZ" style="opacity: 0.1;"/></g></g><g id="shape-e88bca94-cc5e-8054-8004-07a5cfaae3dc"><g class="fills" id="fills-e88bca94-cc5e-8054-8004-07a5cfaae3dc"><path rx="0" ry="0" d="M113.144,52.893C113.144,50.955,114.725,49.381,116.674,49.381L210.008,49.381C211.956,49.381,213.538,50.955,213.538,52.893L213.538,115.431C213.538,117.369,211.956,118.942,210.008,118.942L116.674,118.942C114.725,118.942,113.144,117.369,113.144,115.431L113.144,52.893Z" style="fill: rgb(102, 98, 142); fill-opacity: 1;"/></g></g><g id="shape-e88bca94-cc5e-8054-8004-07a5cfab67e5"><g class="fills" id="fills-e88bca94-cc5e-8054-8004-07a5cfab67e5"><rect rx="0" ry="0" x="116.11132075471687" y="54.9818181818182" transform="matrix(1.000000, 0.000000, 0.000000, 1.000000, 0.000000, 0.000000)" width="93.38490566037763" height="50.278787878787625" style="fill: rgb(60, 58, 92); fill-opacity: 1;"/></g></g><g id="shape-e88bca94-cc5e-8054-8004-07a5cfacb81f"><g class="fills" id="fills-e88bca94-cc5e-8054-8004-07a5cfacb81f"><path rx="0" ry="0" d="M213.538,109.333L213.538,115.431C213.538,116.362,213.166,117.255,212.504,117.914C211.842,118.572,210.945,118.942,210.008,118.942L116.674,118.942C115.737,118.942,114.840,118.572,114.178,117.914C113.516,117.255,113.144,116.362,113.144,115.431L113.144,109.333Z" style="fill: rgb(91, 88, 127); fill-opacity: 1;"/></g></g><g id="shape-e88bca94-cc5e-8054-8004-07a5cfad231e"><g class="fills" id="fills-e88bca94-cc5e-8054-8004-07a5cfad231e"><path rx="0" ry="0" d="M189.536,137.865L189.536,139.044L125.767,139.044L125.767,138.100L125.855,137.865L127.427,133.620L188.232,133.620L189.536,137.865ZZ" style="fill: rgb(91, 88, 127); fill-opacity: 1;"/></g></g><g id="shape-e88bca94-cc5e-8054-8004-07a5cfadaea9"><g class="fills" id="fills-e88bca94-cc5e-8054-8004-07a5cfadaea9"><path rx="0" ry="0" d="M214.076,136.710C213.960,137.204,213.522,137.726,212.531,138.218C208.975,139.987,201.744,137.747,201.744,137.747C201.744,137.747,196.174,136.804,196.174,134.328C196.330,134.221,196.493,134.125,196.662,134.039C198.157,133.252,203.114,131.311,211.903,134.121C212.550,134.323,213.129,134.700,213.574,135.210C213.930,135.625,214.209,136.151,214.076,136.710ZZ" style="fill: rgb(91, 88, 127); fill-opacity: 1;"/></g></g><g id="shape-e88bca94-cc5e-8054-8004-07a5cfae435d"><g class="fills" id="fills-e88bca94-cc5e-8054-8004-07a5cfae435d"><path rx="0" ry="0" d="M214.076,136.710C209.724,138.369,205.844,138.493,201.863,135.742C199.855,134.356,198.031,134.013,196.662,134.039C198.157,133.252,203.114,131.311,211.903,134.121C212.550,134.323,213.129,134.700,213.574,135.210C213.930,135.625,214.209,136.151,214.076,136.710ZZ" style="opacity: 0.1;"/></g></g><g id="shape-e88bca94-cc5e-8054-8004-07a5cfafef7a"><g class="fills" id="fills-e88bca94-cc5e-8054-8004-07a5cfafef7a"><path rx="0" ry="0" d="M189.536,137.865L189.536,139.044L125.767,139.044L125.767,138.100L125.855,137.865L189.536,137.865ZZ" style="opacity: 0.1;"/></g></g><g id="shape-e88bca94-cc5e-8054-8004-07a5cfb078ef"><g class="fills" id="fills-e88bca94-cc5e-8054-8004-07a5cfb078ef"><rect rx="0" ry="0" x="21.24437437812503" y="38.935622317596426" transform="matrix(1.000000, 0.000000, 0.000000, 1.000000, 0.000000, 0.000000)" width="40.685628218941474" height="47.084406294706696" style="fill: rgb(102, 98, 142); fill-opacity: 1;"/></g></g><g id="shape-e88bca94-cc5e-8054-8004-07a5cfb0f2bd"><g class="fills" id="fills-e88bca94-cc5e-8054-8004-07a5cfb0f2bd"><rect rx="0" ry="0" x="17.136690759866724" y="34.26609442060044" transform="matrix(1.000000, 0.000000, 0.000000, 1.000000, 0.000000, 0.000000)" width="48.90099545545809" height="16.732474964234825" style="fill: rgb(60, 58, 92); fill-opacity: 1;"/></g></g><g id="shape-e88bca94-cc5e-8054-8004-07a5cfb153e0"><g class="fills" id="fills-e88bca94-cc5e-8054-8004-07a5cfb153e0"><rect rx="0" ry="0" x="17.136690759866724" y="54.111587982832134" transform="matrix(1.000000, 0.000000, 0.000000, 1.000000, 0.000000, 0.000000)" width="48.90099545545809" height="16.732474964234825" style="fill: rgb(60, 58, 92); fill-opacity: 1;"/></g></g><g id="shape-e88bca94-cc5e-8054-8004-07a5cfb1ffbe"><g class="fills" id="fills-e88bca94-cc5e-8054-8004-07a5cfb1ffbe"><rect rx="0" ry="0" x="17.136690759866724" y="73.95708154506428" transform="matrix(1.000000, 0.000000, 0.000000, 1.000000, 0.000000, 0.000000)" width="48.90099545545809" height="16.73247496423437" style="fill: rgb(60, 58, 92); fill-opacity: 1;"/></g></g><g id="shape-e88bca94-cc5e-8054-8004-07a5cfb27ea2"><g class="fills" id="fills-e88bca94-cc5e-8054-8004-07a5cfb27ea2"><rect rx="0" ry="0" x="53.127823415085004" y="37.18454935622276" transform="matrix(1.000000, 0.000000, 0.000000, 1.000000, 0.000000, 0.000000)" width="3.129663709149554" height="3.113018597997325" style="opacity: 0.4; fill: rgb(255, 99, 99); fill-opacity: 1;"/></g></g><g id="shape-e88bca94-cc5e-8054-8004-07a5cfb2d8e0"><g class="fills" id="fills-e88bca94-cc5e-8054-8004-07a5cfb2d8e0"><rect rx="0" ry="0" x="57.626714996986266" y="37.18454935622276" transform="matrix(1.000000, 0.000000, 0.000000, 1.000000, 0.000000, 0.000000)" width="3.129663709149554" height="3.113018597997325" style="opacity: 0.8; fill: rgb(255, 99, 99); fill-opacity: 1;"/></g></g><g id="shape-e88bca94-cc5e-8054-8004-07a5cfb36214"><g class="fills" id="fills-e88bca94-cc5e-8054-8004-07a5cfb36214"><rect rx="0" ry="0" x="62.12560657888935" y="37.18454935622276" transform="matrix(1.000000, 0.000000, 0.000000, 1.000000, 0.000000, 0.000000)" width="3.129663709149554" height="3.113018597997325" style="fill: rgb(255, 99, 99); fill-opacity: 1;"/></g></g><g id="shape-e88bca94-cc5e-8054-8004-07a5cfb3f233"><g class="fills" id="fills-e88bca94-cc5e-8054-8004-07a5cfb3f233"><rect rx="0" ry="0" x="53.127823415085004" y="56.83547925607991" transform="matrix(1.000000, 0.000000, 0.000000, 1.000000, 0.000000, 0.000000)" width="3.129663709149554" height="3.113018597997325" style="opacity: 0.4; fill: rgb(255, 99, 99); fill-opacity: 1;"/></g></g><g id="shape-e88bca94-cc5e-8054-8004-07a5cfb45203"><g class="fills" id="fills-e88bca94-cc5e-8054-8004-07a5cfb45203"><rect rx="0" ry="0" x="57.626714996986266" y="56.83547925607991" transform="matrix(1.000000, 0.000000, 0.000000, 1.000000, 0.000000, 0.000000)" width="3.129663709149554" height="3.113018597997325" style="opacity: 0.8; fill: rgb(255, 99, 99); fill-opacity: 1;"/></g></g><g id="shape-e88bca94-cc5e-8054-8004-07a5cfb4c375"><g class="fills" id="fills-e88bca94-cc5e-8054-8004-07a5cfb4c375"><rect rx="0" ry="0" x="62.12560657888935" y="56.83547925607991" transform="matrix(1.000000, 0.000000, 0.000000, 1.000000, 0.000000, 0.000000)" width="3.129663709149554" height="3.113018597997325" style="fill: rgb(255, 99, 99); fill-opacity: 1;"/></g></g><g id="shape-e88bca94-cc5e-8054-8004-07a5cfb56ac6"><g class="fills" id="fills-e88bca94-cc5e-8054-8004-07a5cfb56ac6"><rect rx="0" ry="0" x="53.127823415085004" y="76.4864091559366" transform="matrix(1.000000, 0.000000, 0.000000, 1.000000, 0.000000, 0.000000)" width="3.129663709149554" height="3.113018597997325" style="opacity: 0.4; fill: rgb(255, 99, 99); fill-opacity: 1;"/></g></g><g id="shape-e88bca94-cc5e-8054-8004-07a5cfb5f6b2"><g class="fills" id="fills-e88bca94-cc5e-8054-8004-07a5cfb5f6b2"><rect rx="0" ry="0" x="57.626714996986266" y="76.4864091559366" transform="matrix(1.000000, 0.000000, 0.000000, 1.000000, 0.000000, 0.000000)" width="3.129663709149554" height="3.113018597997325" style="opacity: 0.8; fill: rgb(255, 99, 99); fill-opacity: 1;"/></g></g><g id="shape-e88bca94-cc5e-8054-8004-07a5cfb612a2"><g class="fills" id="fills-e88bca94-cc5e-8054-8004-07a5cfb612a2"><rect rx="0" ry="0" x="62.12560657888935" y="76.4864091559366" transform="matrix(1.000000, 0.000000, 0.000000, 1.000000, 0.000000, 0.000000)" width="3.129663709149554" height="3.113018597997325" style="fill: rgb(255, 99, 99); fill-opacity: 1;"/></g></g><g id="shape-e88bca94-cc5e-8054-8004-07a5cfb6855e"><g class="fills" id="fills-e88bca94-cc5e-8054-8004-07a5cfb6855e"><ellipse rx="15.452714563924928" ry="15.370529327610939" cx="61.93000259706696" cy="112.6752503576538" transform="matrix(1.000000, 0.000000, 0.000000, 1.000000, 0.000000, 0.000000)" style="fill: rgb(91, 88, 127); fill-opacity: 1;"/></g></g><g id="shape-e88bca94-cc5e-8054-8004-07a5cfb72961"><g class="fills" id="fills-e88bca94-cc5e-8054-8004-07a5cfb72961"><rect rx="0" ry="0" x="54.88825925148103" y="124.7381974248924" transform="matrix(1.000000, 0.000000, 0.000000, 1.000000, 0.000000, 0.000000)" width="4.694495563724104" height="8.366237482117413" style="fill: rgb(91, 88, 127); fill-opacity: 1;"/></g></g><g id="shape-e88bca94-cc5e-8054-8004-07a5cfb791fd"><g class="fills" id="fills-e88bca94-cc5e-8054-8004-07a5cfb791fd"><rect rx="0" ry="0" x="64.27725037892878" y="124.7381974248924" transform="matrix(1.000000, 0.000000, 0.000000, 1.000000, 0.000000, 0.000000)" width="4.6944955637245585" height="8.366237482117413" style="fill: rgb(91, 88, 127); fill-opacity: 1;"/></g></g><g id="shape-e88bca94-cc5e-8054-8004-07a5cfb81e64"><g class="fills" id="fills-e88bca94-cc5e-8054-8004-07a5cfb81e64"><ellipse rx="3.912079636436829" ry="1.4592274678111607" cx="58.80033888791786" cy="133.20171673819732" transform="matrix(1.000000, 0.000000, 0.000000, 1.000000, 0.000000, 0.000000)" style="fill: rgb(91, 88, 127); fill-opacity: 1;"/></g></g><g id="shape-e88bca94-cc5e-8054-8004-07a5cfb882c4"><g class="fills" id="fills-e88bca94-cc5e-8054-8004-07a5cfb882c4"><ellipse rx="3.912079636436829" ry="1.4592274678113881" cx="68.18933001536561" cy="133.00715307582254" transform="matrix(1.000000, 0.000000, 0.000000, 1.000000, 0.000000, 0.000000)" style="fill: rgb(91, 88, 127); fill-opacity: 1;"/></g></g><g id="shape-e88bca94-cc5e-8054-8004-07a5cfb93ad1"><g class="fills" id="fills-e88bca94-cc5e-8054-8004-07a5cfb93ad1"><ellipse rx="5.281307509189446" ry="5.253218884120088" cx="62.321210560710824" cy="108.78397711015714" transform="matrix(1.000000, 0.000000, 0.000000, 1.000000, 0.000000, 0.000000)" style="fill: rgb(255, 255, 255);"/></g></g><g id="shape-e88bca94-cc5e-8054-8004-07a5cfb9bb92"><g class="fills" id="fills-e88bca94-cc5e-8054-8004-07a5cfb9bb92"><ellipse rx="1.7604358363962547" ry="1.7510729613736657" cx="62.32121056071105" cy="108.78397711015714" transform="matrix(1.000000, 0.000000, 0.000000, 1.000000, 0.000000, 0.000000)" style="fill: rgb(60, 58, 92); fill-opacity: 1;"/></g></g><g id="shape-e88bca94-cc5e-8054-8004-07a5cfba2047"><g class="fills" id="fills-e88bca94-cc5e-8054-8004-07a5cfba2047"><path rx="0" ry="0" d="M46.940,98.381C45.693,92.823,49.681,87.207,55.849,85.837C62.017,84.467,68.028,87.862,69.276,93.420C70.524,98.978,66.436,101.028,60.268,102.398C54.100,103.768,48.188,103.939,46.940,98.381ZZ" style="fill: rgb(255, 83, 83); fill-opacity: 1;"/></g></g><g id="shape-e88bca94-cc5e-8054-8004-07a5cfba8dbe"><g class="fills" id="fills-e88bca94-cc5e-8054-8004-07a5cfba8dbe"><ellipse rx="7.72000939182999" ry="2.414643746309821" cx="75.4687498044841" cy="107.39161619829838" transform="matrix(0.920089, -0.391708, 0.395255, 0.918571, -36.416342, 38.306490)" style="fill: rgb(91, 88, 127); fill-opacity: 1;"/></g></g><g id="shape-e88bca94-cc5e-8054-8004-07a5cfbb2d41"><g class="fills" id="fills-e88bca94-cc5e-8054-8004-07a5cfbb2d41"><ellipse rx="7.72000939182999" ry="2.4146437463099346" cx="46.51936009887322" cy="117.7034901849712" transform="matrix(0.920089, -0.391708, 0.395255, 0.918571, -42.805525, 27.806455)" style="fill: rgb(91, 88, 127); fill-opacity: 1;"/></g></g><g id="shape-e88bca94-cc5e-8054-8004-07a5cfbba447"><g class="fills" id="fills-e88bca94-cc5e-8054-8004-07a5cfbba447"><path rx="0" ry="0" d="M70.928,117.150C70.928,118.655,67.034,121.625,62.712,121.625C58.391,121.625,54.301,118.849,54.301,117.345C54.301,115.840,58.391,116.177,62.712,116.177C67.034,116.177,70.928,115.646,70.928,117.150ZZ" style="fill: rgb(255, 255, 255);"/></g></g></g></svg>