<svg xmlns:xlink="http://www.w3.org/1999/xlink" width="219" xmlns="http://www.w3.org/2000/svg" height="136" id="screenshot-e88bca94-cc5e-8054-8004-07a5cf9ddf2a" viewBox="0 0 219 136" style="-webkit-print-color-adjust: exact;" fill="none" version="1.1"><g id="shape-e88bca94-cc5e-8054-8004-07a5cf9ddf2a" width="1119.60911" height="699" xmlns:xlink="http://www.w3.org/1999/xlink" rx="0" ry="0" style="fill: rgb(0, 0, 0);"><g id="shape-e88bca94-cc5e-8054-8004-07a5cf9fdba6"><g class="fills" id="fills-e88bca94-cc5e-8054-8004-07a5cf9fdba6"><ellipse rx="41.663648128050454" ry="41.44206008583683" cx="57.23550703334263" cy="41.44206008583683" transform="matrix(1.000000, 0.000000, 0.000000, 1.000000, 0.000000, 0.000000)" style="fill: rgb(242, 242, 242);"/></g></g><g id="shape-e88bca94-cc5e-8054-8004-07a5cfa127c1"><g class="fills" id="fills-e88bca94-cc5e-8054-8004-07a5cfa127c1"><path rx="0" ry="0" d="M0.000,9.950C0.000,25.029,9.510,37.230,21.262,37.230" style="fill: rgb(91, 88, 127); fill-opacity: 1;"/></g></g><g id="shape-e88bca94-cc5e-8054-8004-07a5cfa1f660"><g class="fills" id="fills-e88bca94-cc5e-8054-8004-07a5cfa1f660"><path rx="0" ry="0" d="M21.262,37.230C21.262,21.982,31.875,9.644,44.990,9.644" style="fill: rgb(108, 99, 255);"/></g></g><g id="shape-e88bca94-cc5e-8054-8004-07a5cfa2af69"><g class="fills" id="fills-e88bca94-cc5e-8054-8004-07a5cfa2af69"><path rx="0" ry="0" d="M7.704,11.317C7.704,25.640,13.768,37.230,21.262,37.230" style="fill: rgb(108, 99, 255);"/></g></g><g id="shape-e88bca94-cc5e-8054-8004-07a5cfa36f87"><g class="fills" id="fills-e88bca94-cc5e-8054-8004-07a5cfa36f87"><path rx="0" ry="0" d="M21.262,37.230C21.262,17.747,33.529,1.981,48.688,1.981" style="fill: rgb(91, 88, 127); fill-opacity: 1;"/></g></g><g id="shape-e88bca94-cc5e-8054-8004-07a5cfa40a09"><g class="fills" id="fills-e88bca94-cc5e-8054-8004-07a5cfa40a09"><path rx="0" ry="0" d="M16.789,37.422C16.789,37.422,19.805,37.330,20.713,36.686C21.622,36.042,25.352,35.274,25.577,36.306C25.803,37.339,30.109,41.440,26.704,41.468C23.300,41.495,18.794,40.940,17.887,40.391C16.980,39.841,16.789,37.422,16.789,37.422ZZ" style="fill: rgb(168, 168, 168);"/></g></g><g id="shape-e88bca94-cc5e-8054-8004-07a5cfa4ee7e"><g class="fills" id="fills-e88bca94-cc5e-8054-8004-07a5cfa4ee7e"><path rx="0" ry="0" d="M26.765,41.108C23.361,41.136,18.855,40.581,17.948,40.031C17.257,39.613,16.982,38.111,16.890,37.418C16.826,37.421,16.789,37.422,16.789,37.422C16.789,37.422,16.980,39.841,17.887,40.391C18.794,40.940,23.300,41.495,26.704,41.468C27.687,41.460,28.026,41.112,28.008,40.597C27.871,40.908,27.497,41.102,26.765,41.108ZZ" style="opacity: 0.2;"/></g></g><g id="shape-e88bca94-cc5e-8054-8004-07a5cfa5bc64"><g class="fills" id="fills-e88bca94-cc5e-8054-8004-07a5cfa5bc64"><ellipse rx="36.57794460068317" ry="4.949685951359015" cx="38.84873274209076" cy="82.59227467811138" transform="matrix(1.000000, 0.000000, 0.000000, 1.000000, 0.000000, 0.000000)" style="fill: rgb(60, 58, 92); fill-opacity: 1;"/></g></g><g id="shape-e88bca94-cc5e-8054-8004-07a5cfa601d5"><g class="fills" id="fills-e88bca94-cc5e-8054-8004-07a5cfa601d5"><ellipse rx="30.709825146027924" ry="4.155619113018702" cx="38.848732742090306" cy="82.59227467811138" transform="matrix(1.000000, 0.000000, 0.000000, 1.000000, 0.000000, 0.000000)" style="opacity: 0.1;"/></g></g><g id="shape-e88bca94-cc5e-8054-8004-07a5cfa68403"><g class="fills" id="fills-e88bca94-cc5e-8054-8004-07a5cfa68403"><ellipse rx="55.35592685557913" ry="7.490701001430807" cx="163.64407314442087" cy="128.5092989985692" transform="matrix(1.000000, 0.000000, 0.000000, 1.000000, 0.000000, 0.000000)" style="fill: rgb(60, 58, 92); fill-opacity: 1;"/></g></g><g id="shape-e88bca94-cc5e-8054-8004-07a5cfa77387"><g class="fills" id="fills-e88bca94-cc5e-8054-8004-07a5cfa77387"><ellipse rx="33.25267690971191" ry="4.499714678111559" cx="60.75637870613605" cy="125.59084406294687" transform="matrix(1.000000, 0.000000, 0.000000, 1.000000, 0.000000, 0.000000)" style="fill: rgb(60, 58, 92); fill-opacity: 1;"/></g></g><g id="shape-e88bca94-cc5e-8054-8004-07a5cfa7c78f"><g class="fills" id="fills-e88bca94-cc5e-8054-8004-07a5cfa7c78f"><path fill="none" stroke-miterlimit="10" rx="0" ry="0" d="M90.488,121.797C108.093,126.272,141.932,115.960,145.649,104.286" style="fill: none;"/></g><g id="strokes-e88bca94-cc5e-8054-8004-07a5cfa7c78f" class="strokes"><g class="stroke-shape"><path stroke-miterlimit="10" rx="0" ry="0" d="M90.488,121.797C108.093,126.272,141.932,115.960,145.649,104.286" style="fill: none; stroke-width: 2; stroke: rgb(188, 185, 255); stroke-opacity: 1;"/></g></g></g><g id="shape-e88bca94-cc5e-8054-8004-07a5cfa870d6"><g class="fills" id="fills-e88bca94-cc5e-8054-8004-07a5cfa870d6"><path fill="none" stroke-miterlimit="10" rx="0" ry="0" d="M60.561,50.392C60.561,50.392,85.989,43.388,87.554,65.957C89.119,88.526,66.624,94.947,84.229,99.422" style="fill: none;"/></g><g id="strokes-e88bca94-cc5e-8054-8004-07a5cfa870d6" class="strokes"><g class="stroke-shape"><path stroke-miterlimit="10" rx="0" ry="0" d="M60.561,50.392C60.561,50.392,85.989,43.388,87.554,65.957C89.119,88.526,66.624,94.947,84.229,99.422" style="fill: none; stroke-width: 2; stroke: rgb(188, 185, 255); stroke-opacity: 1;"/></g></g></g><g id="shape-e88bca94-cc5e-8054-8004-07a5cfa93972"><g class="fills" id="fills-e88bca94-cc5e-8054-8004-07a5cfa93972"><path fill="none" stroke-miterlimit="10" rx="0" ry="0" d="M35.993,104.536C35.993,104.536,43.636,102.431,44.106,109.214C44.577,115.997,37.816,117.927,43.107,119.272" style="fill: none;"/></g><g id="strokes-e88bca94-cc5e-8054-8004-07a5cfa93972" class="strokes"><g class="stroke-shape"><path stroke-miterlimit="10" rx="0" ry="0" d="M35.993,104.536C35.993,104.536,43.636,102.431,44.106,109.214C44.577,115.997,37.816,117.927,43.107,119.272" style="fill: none; stroke-width: 2; stroke: rgb(188, 185, 255); stroke-opacity: 1;"/></g></g></g><g id="shape-e88bca94-cc5e-8054-8004-07a5cfa98ff8"><g class="fills" id="fills-e88bca94-cc5e-8054-8004-07a5cfa98ff8"><path rx="0" ry="0" d="M152.318,109.586L150.777,119.372C150.777,119.372,143.191,123.380,148.525,123.498C153.859,123.616,178.987,123.498,178.987,123.498C178.987,123.498,183.847,123.498,176.142,119.254L174.601,108.997Z" style="fill: rgb(91, 88, 127); fill-opacity: 1;"/></g></g><g id="shape-e88bca94-cc5e-8054-8004-07a5cfaa4f14"><g class="fills" id="fills-e88bca94-cc5e-8054-8004-07a5cfaa4f14"><path rx="0" ry="0" d="M147.452,123.392C148.663,122.320,150.777,121.203,150.777,121.203L152.318,111.417L174.601,111.438L176.142,121.085C177.939,122.075,179.052,122.833,179.703,123.415C180.692,123.191,181.774,122.356,176.142,119.254L174.601,108.997L152.318,109.586L150.777,119.372C150.777,119.372,144.402,122.740,147.452,123.392ZZ" style="opacity: 0.1;"/></g></g><g id="shape-e88bca94-cc5e-8054-8004-07a5cfaae3dc"><g class="fills" id="fills-e88bca94-cc5e-8054-8004-07a5cfaae3dc"><path rx="0" ry="0" d="M113.144,44.893C113.144,42.955,114.725,41.381,116.674,41.381L210.008,41.381C211.956,41.381,213.538,42.955,213.538,44.893L213.538,107.431C213.538,109.369,211.956,110.942,210.008,110.942L116.674,110.942C114.725,110.942,113.144,109.369,113.144,107.431L113.144,44.893Z" style="fill: rgb(91, 88, 127); fill-opacity: 1;"/></g></g><g id="shape-e88bca94-cc5e-8054-8004-07a5cfab67e5"><g class="fills" id="fills-e88bca94-cc5e-8054-8004-07a5cfab67e5"><rect rx="0" ry="0" x="116.11132075471687" y="46.9818181818182" transform="matrix(1.000000, 0.000000, 0.000000, 1.000000, 0.000000, 0.000000)" width="93.38490566037763" height="50.278787878787625" style="fill: rgb(60, 58, 92); fill-opacity: 1;"/></g></g><g id="shape-e88bca94-cc5e-8054-8004-07a5cfabcb67"><g class="fills" id="fills-e88bca94-cc5e-8054-8004-07a5cfabcb67"><ellipse rx="0.5926468122429469" ry="0.589494821173048" cx="163.34095934607012" cy="43.444701917024304" transform="matrix(1.000000, 0.000000, 0.000000, 1.000000, 0.000000, 0.000000)" style="fill: rgb(242, 242, 242);"/></g></g><g id="shape-e88bca94-cc5e-8054-8004-07a5cfacb81f"><g class="fills" id="fills-e88bca94-cc5e-8054-8004-07a5cfacb81f"><path rx="0" ry="0" d="M213.538,101.333L213.538,107.431C213.538,108.362,213.166,109.255,212.504,109.914C211.842,110.572,210.945,110.942,210.008,110.942L116.674,110.942C115.737,110.942,114.840,110.572,114.178,109.914C113.516,109.255,113.144,108.362,113.144,107.431L113.144,101.333Z" style="fill: rgb(91, 88, 127); fill-opacity: 1;"/></g></g><g id="shape-e88bca94-cc5e-8054-8004-07a5cfad231e"><g class="fills" id="fills-e88bca94-cc5e-8054-8004-07a5cfad231e"><path rx="0" ry="0" d="M189.536,129.865L189.536,131.044L125.767,131.044L125.767,130.100L125.855,129.865L127.427,125.620L188.232,125.620L189.536,129.865ZZ" style="fill: rgb(91, 88, 127); fill-opacity: 1;"/></g></g><g id="shape-e88bca94-cc5e-8054-8004-07a5cfadaea9"><g class="fills" id="fills-e88bca94-cc5e-8054-8004-07a5cfadaea9"><path rx="0" ry="0" d="M214.076,128.710C213.960,129.204,213.522,129.726,212.531,130.218C208.975,131.987,201.744,129.747,201.744,129.747C201.744,129.747,196.174,128.804,196.174,126.328C196.330,126.221,196.493,126.125,196.662,126.039C198.157,125.252,203.114,123.311,211.903,126.121C212.550,126.323,213.129,126.700,213.574,127.210C213.930,127.625,214.209,128.151,214.076,128.710ZZ" style="fill: rgb(91, 88, 127); fill-opacity: 1;"/></g></g><g id="shape-e88bca94-cc5e-8054-8004-07a5cfae435d"><g class="fills" id="fills-e88bca94-cc5e-8054-8004-07a5cfae435d"><path rx="0" ry="0" d="M214.076,128.710C209.724,130.369,205.844,130.493,201.863,127.742C199.855,126.356,198.031,126.013,196.662,126.039C198.157,125.252,203.114,123.311,211.903,126.121C212.550,126.323,213.129,126.700,213.574,127.210C213.930,127.625,214.209,128.151,214.076,128.710ZZ" style="opacity: 0.1;"/></g></g><g id="shape-e88bca94-cc5e-8054-8004-07a5cfaecf79"><g class="fills" id="fills-e88bca94-cc5e-8054-8004-07a5cfaecf79"><ellipse rx="1.5408821030409854" ry="0.4715950786837766" cx="208.61916954212666" cy="127.27085653791096" transform="matrix(1.000000, 0.000000, 0.000000, 1.000000, 0.000000, 0.000000)" style="fill: rgb(242, 242, 242);"/></g></g><g id="shape-e88bca94-cc5e-8054-8004-07a5cfaf6bb4"><g class="fills" id="fills-e88bca94-cc5e-8054-8004-07a5cfaf6bb4"><ellipse rx="2.252057104108644" ry="2.240079542203148" cx="163.34095934607012" cy="106.16694271816868" transform="matrix(1.000000, 0.000000, 0.000000, 1.000000, 0.000000, 0.000000)" style="fill: rgb(242, 242, 242);"/></g></g><g id="shape-e88bca94-cc5e-8054-8004-07a5cfafef7a"><g class="fills" id="fills-e88bca94-cc5e-8054-8004-07a5cfafef7a"><path rx="0" ry="0" d="M189.536,129.865L189.536,131.044L125.767,131.044L125.767,130.100L125.855,129.865L189.536,129.865ZZ" style="opacity: 0.1;"/></g></g><g id="shape-e88bca94-cc5e-8054-8004-07a5cfb078ef"><g class="fills" id="fills-e88bca94-cc5e-8054-8004-07a5cfb078ef"><rect rx="0" ry="0" x="21.24437437812503" y="30.935622317596426" transform="matrix(1.000000, 0.000000, 0.000000, 1.000000, 0.000000, 0.000000)" width="40.685628218941474" height="47.084406294706696" style="fill: rgb(91, 88, 127); fill-opacity: 1;"/></g></g><g id="shape-e88bca94-cc5e-8054-8004-07a5cfb0f2bd"><g class="fills" id="fills-e88bca94-cc5e-8054-8004-07a5cfb0f2bd"><rect rx="0" ry="0" x="17.136690759866724" y="26.26609442060044" transform="matrix(1.000000, 0.000000, 0.000000, 1.000000, 0.000000, 0.000000)" width="48.90099545545809" height="16.732474964234825" style="fill: rgb(60, 58, 92); fill-opacity: 1;"/></g></g><g id="shape-e88bca94-cc5e-8054-8004-07a5cfb153e0"><g class="fills" id="fills-e88bca94-cc5e-8054-8004-07a5cfb153e0"><rect rx="0" ry="0" x="17.136690759866724" y="46.111587982832134" transform="matrix(1.000000, 0.000000, 0.000000, 1.000000, 0.000000, 0.000000)" width="48.90099545545809" height="16.732474964234825" style="fill: rgb(60, 58, 92); fill-opacity: 1;"/></g></g><g id="shape-e88bca94-cc5e-8054-8004-07a5cfb1ffbe"><g class="fills" id="fills-e88bca94-cc5e-8054-8004-07a5cfb1ffbe"><rect rx="0" ry="0" x="17.136690759866724" y="65.95708154506428" transform="matrix(1.000000, 0.000000, 0.000000, 1.000000, 0.000000, 0.000000)" width="48.90099545545809" height="16.73247496423437" style="fill: rgb(60, 58, 92); fill-opacity: 1;"/></g></g><g id="shape-e88bca94-cc5e-8054-8004-07a5cfb27ea2"><g class="fills" id="fills-e88bca94-cc5e-8054-8004-07a5cfb27ea2"><rect rx="0" ry="0" x="53.127823415085004" y="29.18454935622276" transform="matrix(1.000000, 0.000000, 0.000000, 1.000000, 0.000000, 0.000000)" width="3.129663709149554" height="3.113018597997325" style="opacity: 0.4; fill: rgb(108, 99, 255);"/></g></g><g id="shape-e88bca94-cc5e-8054-8004-07a5cfb2d8e0"><g class="fills" id="fills-e88bca94-cc5e-8054-8004-07a5cfb2d8e0"><rect rx="0" ry="0" x="57.626714996986266" y="29.18454935622276" transform="matrix(1.000000, 0.000000, 0.000000, 1.000000, 0.000000, 0.000000)" width="3.129663709149554" height="3.113018597997325" style="opacity: 0.8; fill: rgb(108, 99, 255);"/></g></g><g id="shape-e88bca94-cc5e-8054-8004-07a5cfb36214"><g class="fills" id="fills-e88bca94-cc5e-8054-8004-07a5cfb36214"><rect rx="0" ry="0" x="62.12560657888935" y="29.18454935622276" transform="matrix(1.000000, 0.000000, 0.000000, 1.000000, 0.000000, 0.000000)" width="3.129663709149554" height="3.113018597997325" style="fill: rgb(108, 99, 255);"/></g></g><g id="shape-e88bca94-cc5e-8054-8004-07a5cfb3f233"><g class="fills" id="fills-e88bca94-cc5e-8054-8004-07a5cfb3f233"><rect rx="0" ry="0" x="53.127823415085004" y="48.83547925607991" transform="matrix(1.000000, 0.000000, 0.000000, 1.000000, 0.000000, 0.000000)" width="3.129663709149554" height="3.113018597997325" style="opacity: 0.4; fill: rgb(108, 99, 255);"/></g></g><g id="shape-e88bca94-cc5e-8054-8004-07a5cfb45203"><g class="fills" id="fills-e88bca94-cc5e-8054-8004-07a5cfb45203"><rect rx="0" ry="0" x="57.626714996986266" y="48.83547925607991" transform="matrix(1.000000, 0.000000, 0.000000, 1.000000, 0.000000, 0.000000)" width="3.129663709149554" height="3.113018597997325" style="opacity: 0.8; fill: rgb(108, 99, 255);"/></g></g><g id="shape-e88bca94-cc5e-8054-8004-07a5cfb4c375"><g class="fills" id="fills-e88bca94-cc5e-8054-8004-07a5cfb4c375"><rect rx="0" ry="0" x="62.12560657888935" y="48.83547925607991" transform="matrix(1.000000, 0.000000, 0.000000, 1.000000, 0.000000, 0.000000)" width="3.129663709149554" height="3.113018597997325" style="fill: rgb(108, 99, 255);"/></g></g><g id="shape-e88bca94-cc5e-8054-8004-07a5cfb56ac6"><g class="fills" id="fills-e88bca94-cc5e-8054-8004-07a5cfb56ac6"><rect rx="0" ry="0" x="53.127823415085004" y="68.4864091559366" transform="matrix(1.000000, 0.000000, 0.000000, 1.000000, 0.000000, 0.000000)" width="3.129663709149554" height="3.113018597997325" style="opacity: 0.4; fill: rgb(108, 99, 255);"/></g></g><g id="shape-e88bca94-cc5e-8054-8004-07a5cfb5f6b2"><g class="fills" id="fills-e88bca94-cc5e-8054-8004-07a5cfb5f6b2"><rect rx="0" ry="0" x="57.626714996986266" y="68.4864091559366" transform="matrix(1.000000, 0.000000, 0.000000, 1.000000, 0.000000, 0.000000)" width="3.129663709149554" height="3.113018597997325" style="opacity: 0.8; fill: rgb(108, 99, 255);"/></g></g><g id="shape-e88bca94-cc5e-8054-8004-07a5cfb612a2"><g class="fills" id="fills-e88bca94-cc5e-8054-8004-07a5cfb612a2"><rect rx="0" ry="0" x="62.12560657888935" y="68.4864091559366" transform="matrix(1.000000, 0.000000, 0.000000, 1.000000, 0.000000, 0.000000)" width="3.129663709149554" height="3.113018597997325" style="fill: rgb(108, 99, 255);"/></g></g><g id="shape-e88bca94-cc5e-8054-8004-07a5cfb6855e"><g class="fills" id="fills-e88bca94-cc5e-8054-8004-07a5cfb6855e"><ellipse rx="15.452714563924928" ry="15.370529327610939" cx="61.93000259706696" cy="104.6752503576538" transform="matrix(1.000000, 0.000000, 0.000000, 1.000000, 0.000000, 0.000000)" style="fill: rgb(91, 88, 127); fill-opacity: 1;"/></g></g><g id="shape-e88bca94-cc5e-8054-8004-07a5cfb72961"><g class="fills" id="fills-e88bca94-cc5e-8054-8004-07a5cfb72961"><rect rx="0" ry="0" x="54.88825925148103" y="116.7381974248924" transform="matrix(1.000000, 0.000000, 0.000000, 1.000000, 0.000000, 0.000000)" width="4.694495563724104" height="8.366237482117413" style="fill: rgb(91, 88, 127); fill-opacity: 1;"/></g></g><g id="shape-e88bca94-cc5e-8054-8004-07a5cfb791fd"><g class="fills" id="fills-e88bca94-cc5e-8054-8004-07a5cfb791fd"><rect rx="0" ry="0" x="64.27725037892878" y="116.7381974248924" transform="matrix(1.000000, 0.000000, 0.000000, 1.000000, 0.000000, 0.000000)" width="4.6944955637245585" height="8.366237482117413" style="fill: rgb(91, 88, 127); fill-opacity: 1;"/></g></g><g id="shape-e88bca94-cc5e-8054-8004-07a5cfb81e64"><g class="fills" id="fills-e88bca94-cc5e-8054-8004-07a5cfb81e64"><ellipse rx="3.912079636436829" ry="1.4592274678111607" cx="58.80033888791786" cy="125.20171673819732" transform="matrix(1.000000, 0.000000, 0.000000, 1.000000, 0.000000, 0.000000)" style="fill: rgb(91, 88, 127); fill-opacity: 1;"/></g></g><g id="shape-e88bca94-cc5e-8054-8004-07a5cfb882c4"><g class="fills" id="fills-e88bca94-cc5e-8054-8004-07a5cfb882c4"><ellipse rx="3.912079636436829" ry="1.4592274678113881" cx="68.18933001536561" cy="125.00715307582254" transform="matrix(1.000000, 0.000000, 0.000000, 1.000000, 0.000000, 0.000000)" style="fill: rgb(91, 88, 127); fill-opacity: 1;"/></g></g><g id="shape-e88bca94-cc5e-8054-8004-07a5cfb93ad1"><g class="fills" id="fills-e88bca94-cc5e-8054-8004-07a5cfb93ad1"><ellipse rx="5.281307509189446" ry="5.253218884120088" cx="62.321210560710824" cy="100.78397711015714" transform="matrix(1.000000, 0.000000, 0.000000, 1.000000, 0.000000, 0.000000)" style="fill: rgb(255, 255, 255);"/></g></g><g id="shape-e88bca94-cc5e-8054-8004-07a5cfb9bb92"><g class="fills" id="fills-e88bca94-cc5e-8054-8004-07a5cfb9bb92"><ellipse rx="1.7604358363962547" ry="1.7510729613736657" cx="62.32121056071105" cy="100.78397711015714" transform="matrix(1.000000, 0.000000, 0.000000, 1.000000, 0.000000, 0.000000)" style="fill: rgb(60, 58, 92); fill-opacity: 1;"/></g></g><g id="shape-e88bca94-cc5e-8054-8004-07a5cfba2047"><g class="fills" id="fills-e88bca94-cc5e-8054-8004-07a5cfba2047"><path rx="0" ry="0" d="M46.940,90.381C45.693,84.823,49.681,79.207,55.849,77.837C62.017,76.467,68.028,79.862,69.276,85.420C70.524,90.978,66.436,93.028,60.268,94.398C54.100,95.768,48.188,95.939,46.940,90.381ZZ" style="fill: rgb(108, 99, 255);"/></g></g><g id="shape-e88bca94-cc5e-8054-8004-07a5cfba8dbe"><g class="fills" id="fills-e88bca94-cc5e-8054-8004-07a5cfba8dbe"><ellipse rx="7.72000939182999" ry="2.414643746309821" cx="75.4687498044841" cy="99.39161619829838" transform="matrix(0.920089, -0.391708, 0.395255, 0.918571, -33.254301, 37.655061)" style="fill: rgb(91, 88, 127); fill-opacity: 1;"/></g></g><g id="shape-e88bca94-cc5e-8054-8004-07a5cfbb2d41"><g class="fills" id="fills-e88bca94-cc5e-8054-8004-07a5cfbb2d41"><ellipse rx="7.72000939182999" ry="2.4146437463099346" cx="46.51936009887322" cy="109.7034901849712" transform="matrix(0.920089, -0.391708, 0.395255, 0.918571, -39.643484, 27.155026)" style="fill: rgb(91, 88, 127); fill-opacity: 1;"/></g></g><g id="shape-e88bca94-cc5e-8054-8004-07a5cfbba447"><g class="fills" id="fills-e88bca94-cc5e-8054-8004-07a5cfbba447"><path rx="0" ry="0" d="M70.928,109.150C70.928,110.655,67.034,113.625,62.712,113.625C58.391,113.625,54.301,110.849,54.301,109.345C54.301,107.840,58.391,108.177,62.712,108.177C67.034,108.177,70.928,107.646,70.928,109.150ZZ" style="fill: rgb(255, 255, 255);"/></g></g></g></svg>